<svg width="85" height="82" viewBox="0 0 85 82" fill="none" xmlns="http://www.w3.org/2000/svg">
<path d="M64.8615 36.8293C64.8615 44.9941 59.9941 49.8615 51.8293 49.8615H49.16C47.9263 49.8615 46.9169 48.8521 46.9169 47.6185V34.6759C46.9169 34.0703 47.4104 33.5544 48.016 33.5544L51.9638 33.4871C52.2779 33.4646 52.547 33.2403 52.6143 32.9263L53.3994 28.642C53.4147 28.5449 53.4087 28.4457 53.3818 28.3511C53.355 28.2565 53.308 28.1689 53.244 28.0943C53.18 28.0197 53.1007 27.9598 53.0113 27.9188C52.922 27.8778 52.8248 27.8567 52.7265 27.857L47.9487 27.9242C47.3207 27.9242 46.8272 27.4308 46.8048 26.8251L46.715 21.3296C46.715 20.9707 47.0066 20.6567 47.388 20.6567L52.7714 20.567C53.1527 20.567 53.4443 20.2754 53.4443 19.894L53.3546 14.5106C53.3546 14.1293 53.063 13.8377 52.6816 13.8377L46.6253 13.9274C45.7412 13.9409 44.8685 14.1286 44.0571 14.48C43.2457 14.8313 42.5116 15.3393 41.8969 15.9748C41.2822 16.6104 40.799 17.361 40.4749 18.1836C40.1508 19.0063 39.9922 19.8848 40.0082 20.7688L40.1204 26.9373C40.1428 27.5654 39.6494 28.0588 39.0213 28.0813L36.3296 28.1261C35.9483 28.1261 35.6567 28.4177 35.6567 28.799L35.724 33.0609C35.724 33.4422 36.0156 33.7338 36.3969 33.7338L39.0886 33.689C39.7166 33.689 40.2101 34.1824 40.2326 34.7881L40.4344 47.5736C40.4569 48.8297 39.4475 49.8615 38.1914 49.8615H33.0323C24.8675 49.8615 20 44.9941 20 36.8068V18.0323C20 9.86748 24.8675 5 33.0323 5H51.8293C59.9941 5 64.8615 9.86748 64.8615 18.0323V36.8293Z" fill="black"/>
<path d="M2.08523 77.5V64.4091H9.93466V65.8153H3.67045V70.2386H9.34659V71.6449H3.67045V77.5H2.08523ZM15.3343 77.7301C14.7122 77.7301 14.1475 77.6129 13.6404 77.3786C13.1333 77.1399 12.7306 76.7969 12.4324 76.3494C12.1341 75.8977 11.9849 75.3523 11.9849 74.7131C11.9849 74.1506 12.0957 73.6946 12.3173 73.3452C12.5389 72.9915 12.835 72.7145 13.2058 72.5142C13.5765 72.3139 13.9856 72.1648 14.4331 72.0668C14.8848 71.9645 15.3386 71.8835 15.7946 71.8239C16.3912 71.7472 16.8748 71.6896 17.2456 71.6513C17.6206 71.6087 17.8933 71.5384 18.0637 71.4403C18.2385 71.3423 18.3258 71.1719 18.3258 70.929V70.8778C18.3258 70.2472 18.1532 69.7571 17.8081 69.4077C17.4672 69.0582 16.9494 68.8835 16.2548 68.8835C15.5346 68.8835 14.97 69.0412 14.5609 69.3565C14.1518 69.6719 13.8642 70.0085 13.698 70.3665L12.2662 69.8551C12.5218 69.2585 12.8627 68.794 13.2889 68.4616C13.7193 68.125 14.188 67.8906 14.6951 67.7585C15.2065 67.6222 15.7093 67.554 16.2037 67.554C16.519 67.554 16.8812 67.5923 17.2903 67.669C17.7037 67.7415 18.1021 67.8928 18.4856 68.1229C18.8734 68.353 19.1951 68.7003 19.4508 69.1648C19.7065 69.6293 19.8343 70.2514 19.8343 71.0312V77.5H18.3258V76.1705H18.2491C18.1468 76.3835 17.9764 76.6115 17.7377 76.8544C17.4991 77.0973 17.1816 77.304 16.7853 77.4744C16.389 77.6449 15.9054 77.7301 15.3343 77.7301ZM15.5645 76.375C16.161 76.375 16.6639 76.2578 17.073 76.0234C17.4863 75.7891 17.7974 75.4865 18.0062 75.1158C18.2193 74.745 18.3258 74.3551 18.3258 73.946V72.5653C18.2619 72.642 18.1213 72.7124 17.9039 72.7763C17.6909 72.8359 17.4437 72.8892 17.1625 72.9361C16.8855 72.9787 16.6149 73.017 16.3507 73.0511C16.0907 73.081 15.8798 73.1065 15.7179 73.1278C15.3258 73.179 14.9593 73.2621 14.6184 73.3771C14.2818 73.4879 14.0091 73.6562 13.8002 73.8821C13.5957 74.1037 13.4934 74.4062 13.4934 74.7898C13.4934 75.3139 13.6873 75.7102 14.0751 75.9787C14.4672 76.2429 14.9636 76.375 15.5645 76.375ZM26.5763 77.7045C25.6559 77.7045 24.8633 77.4872 24.1985 77.0526C23.5337 76.6179 23.0224 76.0192 22.6644 75.2564C22.3065 74.4936 22.1275 73.6222 22.1275 72.642C22.1275 71.6449 22.3107 70.7649 22.6772 70.0021C23.0479 69.2351 23.5636 68.6364 24.2241 68.206C24.8888 67.7713 25.6644 67.554 26.5508 67.554C27.2411 67.554 27.8633 67.6818 28.4173 67.9375C28.9712 68.1932 29.4251 68.5511 29.7788 69.0114C30.1325 69.4716 30.3519 70.0085 30.4371 70.6222H28.9286C28.8136 70.1747 28.5579 69.7784 28.1616 69.4332C27.7695 69.0838 27.2411 68.9091 26.5763 68.9091C25.9883 68.9091 25.4727 69.0625 25.0295 69.3693C24.5906 69.6719 24.2475 70.1001 24.0004 70.6541C23.7575 71.2038 23.636 71.8494 23.636 72.5909C23.636 73.3494 23.7553 74.0099 23.994 74.5724C24.2369 75.1349 24.5778 75.5717 25.0167 75.8828C25.4599 76.1939 25.9798 76.3494 26.5763 76.3494C26.9684 76.3494 27.3242 76.2812 27.6438 76.1449C27.9634 76.0085 28.234 75.8125 28.4556 75.5568C28.6772 75.3011 28.8349 74.9943 28.9286 74.6364H30.4371C30.3519 75.2159 30.141 75.7379 29.8043 76.2024C29.4719 76.6626 29.0309 77.0291 28.4812 77.3018C27.9357 77.5703 27.3008 77.7045 26.5763 77.7045ZM36.7589 77.7045C35.8129 77.7045 34.9968 77.4957 34.3107 77.0781C33.6289 76.6562 33.1026 76.0682 32.7319 75.3139C32.3654 74.5554 32.1822 73.6733 32.1822 72.6676C32.1822 71.6619 32.3654 70.7756 32.7319 70.0085C33.1026 69.2372 33.6183 68.6364 34.2788 68.206C34.9435 67.7713 35.7191 67.554 36.6055 67.554C37.1168 67.554 37.6218 67.6392 38.1204 67.8097C38.619 67.9801 39.0728 68.2571 39.4819 68.6406C39.891 69.0199 40.217 69.5227 40.4599 70.1491C40.7028 70.7756 40.8242 71.5469 40.8242 72.4631V73.1023H33.256V71.7983H39.2901C39.2901 71.2443 39.1793 70.75 38.9577 70.3153C38.7404 69.8807 38.4293 69.5376 38.0245 69.2862C37.6239 69.0348 37.1509 68.9091 36.6055 68.9091C36.0046 68.9091 35.4847 69.0582 35.0458 69.3565C34.6112 69.6506 34.2766 70.0341 34.0423 70.5071C33.8079 70.9801 33.6907 71.4872 33.6907 72.0284V72.8977C33.6907 73.6392 33.8185 74.2678 34.0742 74.7834C34.3342 75.2947 34.6942 75.6847 35.1545 75.9531C35.6147 76.2173 36.1495 76.3494 36.7589 76.3494C37.1552 76.3494 37.5131 76.294 37.8327 76.1832C38.1566 76.0682 38.4357 75.8977 38.6701 75.6719C38.9045 75.4418 39.0856 75.1562 39.2134 74.8153L40.6708 75.2244C40.5174 75.7188 40.2596 76.1534 39.8974 76.5284C39.5352 76.8991 39.0877 77.1889 38.555 77.3977C38.0224 77.6023 37.4237 77.7045 36.7589 77.7045ZM43.3235 77.5V64.4091H44.832V69.2415H44.9599C45.0707 69.071 45.2241 68.8537 45.4201 68.5895C45.6204 68.321 45.9059 68.0824 46.2766 67.8736C46.6516 67.6605 47.1587 67.554 47.7979 67.554C48.6246 67.554 49.3533 67.7607 49.984 68.174C50.6147 68.5874 51.1069 69.1733 51.4606 69.9318C51.8143 70.6903 51.9911 71.5852 51.9911 72.6165C51.9911 73.6562 51.8143 74.5575 51.4606 75.3203C51.1069 76.0788 50.6168 76.6669 49.9904 77.0845C49.364 77.4979 48.6417 77.7045 47.8235 77.7045C47.1928 77.7045 46.6879 77.6001 46.3086 77.3913C45.9293 77.1783 45.6374 76.9375 45.4329 76.669C45.2283 76.3963 45.0707 76.1705 44.9599 75.9915H44.7809V77.5H43.3235ZM44.8065 72.5909C44.8065 73.3324 44.9151 73.9865 45.1325 74.5533C45.3498 75.1158 45.6673 75.5568 46.0849 75.8764C46.5025 76.1918 47.0138 76.3494 47.619 76.3494C48.2496 76.3494 48.7759 76.1832 49.1978 75.8509C49.6239 75.5142 49.9435 75.0625 50.1566 74.4957C50.3739 73.9247 50.4826 73.2898 50.4826 72.5909C50.4826 71.9006 50.3761 71.2784 50.163 70.7244C49.9542 70.1662 49.6367 69.7251 49.2106 69.4013C48.7887 69.0732 48.2582 68.9091 47.619 68.9091C47.0053 68.9091 46.4897 69.0646 46.0721 69.3757C45.6545 69.6825 45.3391 70.1129 45.1261 70.6669C44.913 71.2166 44.8065 71.858 44.8065 72.5909ZM58.2873 77.7045C57.4009 77.7045 56.6232 77.4936 55.9542 77.0717C55.2894 76.6499 54.7695 76.0597 54.3945 75.3011C54.0238 74.5426 53.8384 73.6562 53.8384 72.642C53.8384 71.6193 54.0238 70.7266 54.3945 69.9638C54.7695 69.201 55.2894 68.6087 55.9542 68.1868C56.6232 67.7649 57.4009 67.554 58.2873 67.554C59.1737 67.554 59.9492 67.7649 60.614 68.1868C61.283 68.6087 61.8029 69.201 62.1737 69.9638C62.5487 70.7266 62.7362 71.6193 62.7362 72.642C62.7362 73.6562 62.5487 74.5426 62.1737 75.3011C61.8029 76.0597 61.283 76.6499 60.614 77.0717C59.9492 77.4936 59.1737 77.7045 58.2873 77.7045ZM58.2873 76.3494C58.9606 76.3494 59.5146 76.1768 59.9492 75.8317C60.3839 75.4865 60.7056 75.0327 60.9144 74.4702C61.1232 73.9077 61.2276 73.2983 61.2276 72.642C61.2276 71.9858 61.1232 71.3743 60.9144 70.8075C60.7056 70.2408 60.3839 69.7827 59.9492 69.4332C59.5146 69.0838 58.9606 68.9091 58.2873 68.9091C57.614 68.9091 57.06 69.0838 56.6254 69.4332C56.1907 69.7827 55.869 70.2408 55.6602 70.8075C55.4513 71.3743 55.3469 71.9858 55.3469 72.642C55.3469 73.2983 55.4513 73.9077 55.6602 74.4702C55.869 75.0327 56.1907 75.4865 56.6254 75.8317C57.06 76.1768 57.614 76.3494 58.2873 76.3494ZM69.0275 77.7045C68.1412 77.7045 67.3635 77.4936 66.6944 77.0717C66.0297 76.6499 65.5098 76.0597 65.1348 75.3011C64.764 74.5426 64.5787 73.6562 64.5787 72.642C64.5787 71.6193 64.764 70.7266 65.1348 69.9638C65.5098 69.201 66.0297 68.6087 66.6944 68.1868C67.3635 67.7649 68.1412 67.554 69.0275 67.554C69.9139 67.554 70.6895 67.7649 71.3542 68.1868C72.0233 68.6087 72.5431 69.201 72.9139 69.9638C73.2889 70.7266 73.4764 71.6193 73.4764 72.642C73.4764 73.6562 73.2889 74.5426 72.9139 75.3011C72.5431 76.0597 72.0233 76.6499 71.3542 77.0717C70.6895 77.4936 69.9139 77.7045 69.0275 77.7045ZM69.0275 76.3494C69.7008 76.3494 70.2548 76.1768 70.6895 75.8317C71.1241 75.4865 71.4458 75.0327 71.6547 74.4702C71.8635 73.9077 71.9679 73.2983 71.9679 72.642C71.9679 71.9858 71.8635 71.3743 71.6547 70.8075C71.4458 70.2408 71.1241 69.7827 70.6895 69.4332C70.2548 69.0838 69.7008 68.9091 69.0275 68.9091C68.3542 68.9091 67.8002 69.0838 67.3656 69.4332C66.9309 69.7827 66.6092 70.2408 66.4004 70.8075C66.1916 71.3743 66.0872 71.9858 66.0872 72.642C66.0872 73.2983 66.1916 73.9077 66.4004 74.4702C66.6092 75.0327 66.9309 75.4865 67.3656 75.8317C67.8002 76.1768 68.3542 76.3494 69.0275 76.3494ZM77.1854 73.9205L77.1598 72.054H77.4666L81.7621 67.6818H83.6286L79.0518 72.3097H78.924L77.1854 73.9205ZM75.7791 77.5V64.4091H77.2876V77.5H75.7791ZM82.0178 77.5L78.1825 72.642L79.2564 71.5938L83.9354 77.5H82.0178Z" fill="black"/>
</svg>
