<svg width="62" height="82" viewBox="0 0 62 82" fill="none" xmlns="http://www.w3.org/2000/svg">
<g clip-path="url(#clip0_281_2864)">
<path d="M57.85 27.175C57.7884 26.5626 57.5006 25.9952 57.0429 25.5837C56.5852 25.1723 55.9905 24.9463 55.375 24.95H36.5C35.125 24.95 34 26.075 34 27.45V31.725C34 33.1 35.125 34.225 36.5 34.225H47.775C47.5 36.525 46 40 42.675 42.325C40.55 43.8 37.725 44.825 34 44.825C33.825 44.825 33.675 44.825 33.5 44.8C27.125 44.6 21.725 40.325 19.775 34.45C19.2342 32.8554 18.9556 31.1837 18.95 29.5C18.95 27.775 19.25 26.1 19.75 24.55C19.9 24.1 20.075 23.65 20.275 23.2C22.575 18.025 27.6 14.375 33.5 14.2C33.65 14.175 33.825 14.175 34 14.175C37.575 14.175 40.25 15.35 42.125 16.65C43.1 17.325 44.4 17.175 45.25 16.35L48.725 12.95C49.825 11.875 49.725 10.05 48.475 9.15C44.5 6.225 39.65 4.5 34 4.5C33.825 4.5 33.675 4.5 33.5 4.525C28.9534 4.60554 24.5156 5.92959 20.6682 8.35352C16.8207 10.7775 13.7105 14.2087 11.675 18.275C9.975 21.675 9 25.475 9 29.5C9 33.525 9.975 37.325 11.675 40.725H11.7C13.7327 44.7883 16.8388 48.2177 20.6816 50.6415C24.5245 53.0653 28.9574 54.391 33.5 54.475C33.675 54.5 33.825 54.5 34 54.5C40.75 54.5 46.425 52.275 50.55 48.45C55.275 44.075 58 37.675 58 30.05C58 28.975 57.95 28.05 57.85 27.175V27.175Z" fill="black"/>
</g>
<path d="M11.0341 68.5C10.8935 68.0696 10.7081 67.6839 10.478 67.343C10.2521 66.9979 9.98153 66.7038 9.66619 66.4609C9.35511 66.218 9.00142 66.0327 8.60511 65.9048C8.20881 65.777 7.77415 65.7131 7.30114 65.7131C6.52557 65.7131 5.82031 65.9134 5.18537 66.3139C4.55043 66.7145 4.04545 67.3047 3.67045 68.0845C3.29545 68.8643 3.10795 69.821 3.10795 70.9545C3.10795 72.0881 3.29759 73.0447 3.67685 73.8246C4.05611 74.6044 4.5696 75.1946 5.21733 75.5952C5.86506 75.9957 6.59375 76.196 7.40341 76.196C8.15341 76.196 8.81392 76.0362 9.38494 75.7166C9.96023 75.3928 10.4077 74.9368 10.7273 74.3487C11.0511 73.7564 11.2131 73.0597 11.2131 72.2585L11.6989 72.3608H7.76136V70.9545H12.7472V72.3608C12.7472 73.4389 12.517 74.3764 12.0568 75.1733C11.6009 75.9702 10.9702 76.5881 10.1648 77.027C9.36364 77.4616 8.44318 77.679 7.40341 77.679C6.24432 77.679 5.22585 77.4062 4.34801 76.8608C3.47443 76.3153 2.79261 75.5398 2.30256 74.5341C1.81676 73.5284 1.57386 72.3352 1.57386 70.9545C1.57386 69.919 1.71236 68.9879 1.98935 68.1612C2.2706 67.3303 2.6669 66.6229 3.17827 66.0391C3.68963 65.4553 4.29474 65.0078 4.99361 64.6967C5.69247 64.3857 6.46165 64.2301 7.30114 64.2301C7.99148 64.2301 8.63494 64.3345 9.23153 64.5433C9.83239 64.7479 10.3672 65.0398 10.8359 65.419C11.3089 65.794 11.7031 66.2436 12.0185 66.7678C12.3338 67.2876 12.5511 67.8651 12.6705 68.5H11.0341ZM19.2463 77.7045C18.3599 77.7045 17.5822 77.4936 16.9132 77.0717C16.2484 76.6499 15.7285 76.0597 15.3535 75.3011C14.9828 74.5426 14.7974 73.6562 14.7974 72.642C14.7974 71.6193 14.9828 70.7266 15.3535 69.9638C15.7285 69.201 16.2484 68.6087 16.9132 68.1868C17.5822 67.7649 18.3599 67.554 19.2463 67.554C20.1326 67.554 20.9082 67.7649 21.573 68.1868C22.242 68.6087 22.7619 69.201 23.1326 69.9638C23.5076 70.7266 23.6951 71.6193 23.6951 72.642C23.6951 73.6562 23.5076 74.5426 23.1326 75.3011C22.7619 76.0597 22.242 76.6499 21.573 77.0717C20.9082 77.4936 20.1326 77.7045 19.2463 77.7045ZM19.2463 76.3494C19.9196 76.3494 20.4735 76.1768 20.9082 75.8317C21.3429 75.4865 21.6646 75.0327 21.8734 74.4702C22.0822 73.9077 22.1866 73.2983 22.1866 72.642C22.1866 71.9858 22.0822 71.3743 21.8734 70.8075C21.6646 70.2408 21.3429 69.7827 20.9082 69.4332C20.4735 69.0838 19.9196 68.9091 19.2463 68.9091C18.573 68.9091 18.019 69.0838 17.5843 69.4332C17.1497 69.7827 16.8279 70.2408 16.6191 70.8075C16.4103 71.3743 16.3059 71.9858 16.3059 72.642C16.3059 73.2983 16.4103 73.9077 16.6191 74.4702C16.8279 75.0327 17.1497 75.4865 17.5843 75.8317C18.019 76.1768 18.573 76.3494 19.2463 76.3494ZM29.9865 77.7045C29.1001 77.7045 28.3224 77.4936 27.6534 77.0717C26.9886 76.6499 26.4688 76.0597 26.0938 75.3011C25.723 74.5426 25.5376 73.6562 25.5376 72.642C25.5376 71.6193 25.723 70.7266 26.0938 69.9638C26.4688 69.201 26.9886 68.6087 27.6534 68.1868C28.3224 67.7649 29.1001 67.554 29.9865 67.554C30.8729 67.554 31.6484 67.7649 32.3132 68.1868C32.9822 68.6087 33.5021 69.201 33.8729 69.9638C34.2479 70.7266 34.4354 71.6193 34.4354 72.642C34.4354 73.6562 34.2479 74.5426 33.8729 75.3011C33.5021 76.0597 32.9822 76.6499 32.3132 77.0717C31.6484 77.4936 30.8729 77.7045 29.9865 77.7045ZM29.9865 76.3494C30.6598 76.3494 31.2138 76.1768 31.6484 75.8317C32.0831 75.4865 32.4048 75.0327 32.6136 74.4702C32.8224 73.9077 32.9268 73.2983 32.9268 72.642C32.9268 71.9858 32.8224 71.3743 32.6136 70.8075C32.4048 70.2408 32.0831 69.7827 31.6484 69.4332C31.2138 69.0838 30.6598 68.9091 29.9865 68.9091C29.3132 68.9091 28.7592 69.0838 28.3246 69.4332C27.8899 69.7827 27.5682 70.2408 27.3594 70.8075C27.1506 71.3743 27.0462 71.9858 27.0462 72.642C27.0462 73.2983 27.1506 73.9077 27.3594 74.4702C27.5682 75.0327 27.8899 75.4865 28.3246 75.8317C28.7592 76.1768 29.3132 76.3494 29.9865 76.3494ZM40.7012 81.3864C39.9725 81.3864 39.3461 81.2926 38.8219 81.1051C38.2978 80.9219 37.861 80.679 37.5115 80.3764C37.1664 80.0781 36.8915 79.7585 36.687 79.4176L37.8887 78.5739C38.025 78.7528 38.1976 78.9574 38.4064 79.1875C38.6152 79.4219 38.9007 79.6243 39.263 79.7947C39.6294 79.9695 40.1088 80.0568 40.7012 80.0568C41.4938 80.0568 42.1479 79.8651 42.6635 79.4815C43.1792 79.098 43.437 78.4972 43.437 77.679V75.6847H43.3091C43.1983 75.8636 43.0407 76.0852 42.8361 76.3494C42.6358 76.6094 42.3461 76.8416 41.9668 77.0462C41.5918 77.2464 41.0847 77.3466 40.4455 77.3466C39.6529 77.3466 38.9412 77.1591 38.3105 76.7841C37.6841 76.4091 37.1877 75.8636 36.8212 75.1477C36.459 74.4318 36.2779 73.5625 36.2779 72.5398C36.2779 71.5341 36.4547 70.6584 36.8084 69.9126C37.1621 69.1626 37.6543 68.5831 38.285 68.174C38.9157 67.7607 39.6444 67.554 40.4711 67.554C41.1103 67.554 41.6174 67.6605 41.9924 67.8736C42.3716 68.0824 42.6614 68.321 42.8617 68.5895C43.0662 68.8537 43.2239 69.071 43.3347 69.2415H43.4881V67.6818H44.9455V77.7812C44.9455 78.625 44.7537 79.3111 44.3702 79.8395C43.9909 80.3722 43.4796 80.7621 42.8361 81.0092C42.1969 81.2607 41.4853 81.3864 40.7012 81.3864ZM40.65 75.9915C41.2551 75.9915 41.7665 75.853 42.1841 75.576C42.6017 75.299 42.9192 74.9006 43.1365 74.3807C43.3539 73.8608 43.4625 73.2386 43.4625 72.5142C43.4625 71.8068 43.356 71.1825 43.1429 70.6413C42.9299 70.1001 42.6145 69.6761 42.1969 69.3693C41.7793 69.0625 41.2637 68.9091 40.65 68.9091C40.0108 68.9091 39.4782 69.071 39.052 69.3949C38.6301 69.7187 38.3127 70.1534 38.0996 70.6989C37.8908 71.2443 37.7864 71.8494 37.7864 72.5142C37.7864 73.196 37.8929 73.799 38.106 74.3232C38.3233 74.843 38.6429 75.2521 39.0648 75.5504C39.4909 75.8445 40.0194 75.9915 40.65 75.9915ZM49.2154 64.4091V77.5H47.7069V64.4091H49.2154ZM56.0948 77.7045C55.1488 77.7045 54.3327 77.4957 53.6467 77.0781C52.9648 76.6562 52.4386 76.0682 52.0678 75.3139C51.7013 74.5554 51.5181 73.6733 51.5181 72.6676C51.5181 71.6619 51.7013 70.7756 52.0678 70.0085C52.4386 69.2372 52.9542 68.6364 53.6147 68.206C54.2795 67.7713 55.055 67.554 55.9414 67.554C56.4528 67.554 56.9577 67.6392 57.4563 67.8097C57.9549 67.9801 58.4087 68.2571 58.8178 68.6406C59.2269 69.0199 59.5529 69.5227 59.7958 70.1491C60.0387 70.7756 60.1602 71.5469 60.1602 72.4631V73.1023H52.592V71.7983H58.6261C58.6261 71.2443 58.5153 70.75 58.2937 70.3153C58.0763 69.8807 57.7653 69.5376 57.3604 69.2862C56.9599 69.0348 56.4869 68.9091 55.9414 68.9091C55.3406 68.9091 54.8207 69.0582 54.3817 69.3565C53.9471 69.6506 53.6126 70.0341 53.3782 70.5071C53.1438 70.9801 53.0266 71.4872 53.0266 72.0284V72.8977C53.0266 73.6392 53.1545 74.2678 53.4102 74.7834C53.6701 75.2947 54.0302 75.6847 54.4904 75.9531C54.9506 76.2173 55.4854 76.3494 56.0948 76.3494C56.4911 76.3494 56.8491 76.294 57.1687 76.1832C57.4925 76.0682 57.7717 75.8977 58.006 75.6719C58.2404 75.4418 58.4215 75.1562 58.5494 74.8153L60.0067 75.2244C59.8533 75.7188 59.5955 76.1534 59.2333 76.5284C58.8711 76.8991 58.4237 77.1889 57.891 77.3977C57.3583 77.6023 56.7596 77.7045 56.0948 77.7045Z" fill="black"/>
<defs>
<clipPath id="clip0_281_2864">
<rect width="54" height="54" fill="white" transform="translate(4 0.5)"/>
</clipPath>
</defs>
</svg>
