<svg width="129" height="70" viewBox="0 0 129 70" fill="none" xmlns="http://www.w3.org/2000/svg">
<path d="M68.4053 51.7349V23.2859H86.469" stroke="white" stroke-width="11.63"/>
<path d="M94.4736 18.3146V51.8332" stroke="white" stroke-width="11.63"/>
<path d="M101.971 22.9413H115.235M128.5 22.9413H115.235M115.235 22.9413V51.7348" stroke="white" stroke-width="11.63"/>
<path d="M71.4569 38.4456H86.4197" stroke="white" stroke-width="11.63"/>
<path d="M18.6454 51.5387C14.1727 60.3905 5.54045 66.4079 0.500061 69.3061C3.39828 68.235 7.77564 66.8599 11.8409 64.2027C15.1717 62.0256 17.8894 59.1623 19.5905 57.5872L40.1931 57.2092C40.1931 57.2092 46.8086 56.9067 51.3449 55.697C55.8813 54.4874 57.7285 52.8649 57.9604 49.2706C58.3385 43.4111 58.3385 32.0702 58.3385 32.0702H28.6632V40.7649L45.2965 41.1429C45.2965 41.647 45.7463 43.0751 45.2965 44.1672C44.7991 45.3747 43.6584 46.1833 42.8393 46.4353H24.8829C25.261 45.2382 26.0219 42.6764 26.395 40.1979C26.7912 37.5661 26.841 36.0539 26.7731 33.3933C26.678 29.6678 25.45 23.9426 25.45 23.9426C29.7973 23.8796 39.1724 23.7914 41.8942 23.9426C44.616 24.0938 45.2965 26.9038 45.2965 28.29H58.3385C58.3385 27.6599 58.9614 22.523 57.3934 19.4063C54.7526 14.1571 49.8494 12.6018 43.9734 12.6018H18.8345C18.0154 11.8457 16.2665 9.86641 14.4871 8.25442C11.9154 5.92465 10.5958 4.32788 7.49359 2.77301C5.13544 1.59107 2.51621 0.945867 1.0671 0.693848C4.72138 3.40305 10.2465 6.38288 14.4871 11.6567C17.6369 15.5739 19.2546 18.0637 20.9136 22.8085C22.6604 27.8045 23.0498 30.9417 22.8038 36.2286C22.5158 42.4175 21.4396 46.009 18.6454 51.5387Z" fill="#479F77"/>
</svg>
