<svg width="49" height="51" viewBox="0 0 49 51" fill="none" xmlns="http://www.w3.org/2000/svg">
<path d="M48.85 23.175C48.7884 22.5626 48.5006 21.9952 48.0429 21.5837C47.5852 21.1723 46.9905 20.9463 46.375 20.95H27.5C26.125 20.95 25 22.075 25 23.45V27.725C25 29.1 26.125 30.225 27.5 30.225H38.775C38.5 32.525 37 36 33.675 38.325C31.55 39.8 28.725 40.825 25 40.825C24.825 40.825 24.675 40.825 24.5 40.8C18.125 40.6 12.725 36.325 10.775 30.45C10.2342 28.8554 9.95563 27.1837 9.95 25.5C9.95 23.775 10.25 22.1 10.75 20.55C10.9 20.1 11.075 19.65 11.275 19.2C13.575 14.025 18.6 10.375 24.5 10.2C24.65 10.175 24.825 10.175 25 10.175C28.575 10.175 31.25 11.35 33.125 12.65C34.1 13.325 35.4 13.175 36.25 12.35L39.725 8.95C40.825 7.875 40.725 6.05 39.475 5.15C35.5 2.225 30.65 0.5 25 0.5C24.825 0.5 24.675 0.5 24.5 0.525C19.9534 0.605536 15.5156 1.92959 11.6682 4.35352C7.82075 6.77746 4.71054 10.2087 2.675 14.275C0.975 17.675 0 21.475 0 25.5C0 29.525 0.975 33.325 2.675 36.725H2.7C4.73269 40.7883 7.83879 44.2177 11.6816 46.6415C15.5245 49.0653 19.9574 50.391 24.5 50.475C24.675 50.5 24.825 50.5 25 50.5C31.75 50.5 37.425 48.275 41.55 44.45C46.275 40.075 49 33.675 49 26.05C49 24.975 48.95 24.05 48.85 23.175Z" fill="black"/>
</svg>
